<svg width="177" height="24" viewBox="0 0 177 24" fill="none" xmlns="http://www.w3.org/2000/svg">
<path d="M0 23.2727L3.86364 0H13.9545C15.7273 0 17.178 0.238637 18.3068 0.71591C19.4432 1.19318 20.2462 1.86742 20.7159 2.73864C21.1932 3.60985 21.3333 4.63636 21.1364 5.81818C20.9848 6.66667 20.6591 7.44318 20.1591 8.14773C19.6667 8.8447 19.0417 9.43561 18.2841 9.92045C17.5341 10.3977 16.697 10.7273 15.7727 10.9091L15.7273 11.1364C16.7273 11.1667 17.5985 11.4167 18.3409 11.8864C19.0833 12.3485 19.6288 12.9924 19.9773 13.8182C20.3258 14.6364 20.4091 15.5909 20.2273 16.6818C20.0152 17.9545 19.4962 19.0871 18.6705 20.0795C17.8447 21.072 16.7727 21.8523 15.4545 22.4205C14.1364 22.9886 12.6364 23.2727 10.9545 23.2727H0ZM7.18182 18.2273H10.1364C11.1818 18.2273 12.0038 18.0265 12.6023 17.625C13.2083 17.2235 13.5682 16.6364 13.6818 15.8636C13.7727 15.3182 13.7273 14.8561 13.5455 14.4773C13.3636 14.0985 13.0568 13.8106 12.625 13.6136C12.1932 13.4167 11.6515 13.3182 11 13.3182H7.95455L7.18182 18.2273ZM8.63636 9.40909H11.2273C11.7727 9.40909 12.2727 9.32197 12.7273 9.14773C13.1818 8.97348 13.5568 8.7197 13.8523 8.38636C14.1477 8.05303 14.3333 7.65152 14.4091 7.18182C14.5227 6.45455 14.3485 5.90152 13.8864 5.52273C13.4318 5.14394 12.8182 4.95455 12.0455 4.95455H9.36364L8.63636 9.40909Z" fill="black"/>
<path d="M21.375 23.2727L25.2386 0H31.5568L28.5568 18.1818H37.9659L37.1023 23.2727H21.375Z" fill="black"/>
<path d="M45.7017 23.2727H38.8835L50.429 0H59.0653L62.8835 23.2727H56.0653L53.7926 6.40909H53.6108L45.7017 23.2727ZM45.9744 14.0909H58.7926L57.9744 18.8182H45.1562L45.9744 14.0909Z" fill="black"/>
<path d="M134.875 23.2727L138.739 0H155.511L154.648 5.09091H144.193L143.557 9.09091H153.148L152.284 14.1818H142.693L142.057 18.1818H152.466L151.602 23.2727H134.875Z" fill="black"/>
<path d="M154.781 23.2727L158.645 0H168.69C170.418 0 171.876 0.314394 173.065 0.943182C174.255 1.57197 175.111 2.47727 175.634 3.65909C176.156 4.84091 176.281 6.25758 176.009 7.90909C175.736 9.57576 175.134 10.9811 174.202 12.125C173.277 13.2614 172.099 14.125 170.668 14.7159C169.243 15.2992 167.645 15.5909 165.872 15.5909H159.872L160.69 10.6818H165.418C166.16 10.6818 166.812 10.5909 167.372 10.4091C167.933 10.2197 168.387 9.92424 168.736 9.52273C169.084 9.11364 169.312 8.57576 169.418 7.90909C169.524 7.24242 169.471 6.70076 169.259 6.28409C169.046 5.85985 168.694 5.54924 168.202 5.35227C167.709 5.14773 167.099 5.04545 166.372 5.04545H164.145L161.099 23.2727H154.781ZM170.19 12.5909L174.236 23.2727H167.372L163.463 12.5909H170.19Z" fill="black"/>
<path d="M115.864 0L112 23.2727H118.318L119.318 17.3182L121.909 14.5455L125.636 23.2727H133.182L127.318 10.3636L136.864 0H129.5L120.955 9.40909H120.636L122.182 0H115.864Z" fill="black"/>
<path d="M108.602 2.5L105.472 20.5H67.4064L69.6564 2.5H108.602Z" stroke="black" stroke-width="5"/>
</svg>
